<svg xmlns="http://www.w3.org/2000/svg" viewBox="0 0 248 248"><defs><style>.cls-1{fill:#e35500;}.cls-2,.cls-3,.cls-4{fill:#f0ab00;}.cls-3{opacity:0.7;}.cls-4{opacity:0.4;}.cls-5{fill:#fff;}</style></defs><title>282107-pictogram-neg</title><g id="color_band" data-name="color band"><path class="cls-1" d="M172.48,95.64V43.31L119.81,30.84,67.11,43.3V95.64l52.69,21.69Z"/></g><g id="_100_band" data-name="100% band"><polygon class="cls-2" points="67.1 73.27 88.58 81.35 88.58 52.56 67.1 45.71 67.1 73.27"/><polygon class="cls-2" points="67.1 95.64 88.58 104.48 88.58 85.62 67.1 77.55 67.1 95.64"/><polygon class="cls-2" points="70.56 42.48 90.12 48.78 112.05 43.02 91.34 37.57 70.56 42.48"/><polygon class="cls-2" points="119.81 30.84 99.46 35.65 119.79 40.99 140.12 35.65 119.81 30.84"/></g><g id="_70_band" data-name="70% band"><polygon class="cls-3" points="92.58 82.85 117.79 92.33 117.79 61.88 92.58 53.84 92.58 82.85"/><polygon class="cls-3" points="119.82 45.06 97.11 51.02 119.46 58.22 119.79 58.32 142.47 51.02 119.82 45.06"/><polygon class="cls-3" points="92.58 106.13 117.79 116.5 117.79 96.61 92.58 87.13 92.58 106.13"/></g><g id="_40_band" data-name="40% band"><polygon class="cls-4" points="121.79 61.88 121.79 92.33 147 82.85 147 53.82 121.79 61.88"/><polygon class="cls-4" points="121.79 116.5 147 106.13 147 87.13 121.79 96.61 121.79 116.5"/></g><g id="outlines_--_combound_path" data-name="outlines -- combound path"><path class="cls-5" d="M197,88.67,228.62,64,180.47,51.74v4.13l39.25,10L192.25,87.28,180.47,83.8V88l6.19,1.83L151,104.48V85.62l21.47-8.07V73.28L151,81.35V52.54l21.47-6.86V43.31L169,42.49l-19.55,6.29L127.56,43l20.73-5.44-8.17-1.93L119.79,41,99.46,35.65l-8.12,1.92L112.05,43,90.12,48.78,70.56,42.48l-3.45.81v2.42l21.47,6.85V81.35L67.11,73.28v4.27l21.47,8.07v18.86L52.92,89.8,59.11,88V83.8L47.33,87.28,19.85,65.84l39.25-10V51.74L11,64,42.6,88.67l-44.24,13,46.54,24v57.14l74.88,33.91,74.88-33.91V125.61l46.54-24Zm-75.19,3.66V61.88L147,53.82v29ZM147,87.13v19L121.79,116.5V96.61ZM119.82,45.06l22.65,6-22.68,7.3-.33-.11L97.11,51ZM92.58,53.84l25.21,8V92.33L92.58,82.85Zm0,33.29,25.21,9.48v19.9L92.58,106.13ZM8.95,102.7l37.54-11h0l.31-.09,67.82,27.92L73.78,136Zm40,77.46v-52.5L73.6,140.38l44.19-18v89Zm141.77,0-68.88,31.19v-89l44.19,18,24.69-12.72ZM165.8,136,125,119.52l67.82-27.91.31.09h0l37.54,11Z"/></g></svg>