<svg xmlns="http://www.w3.org/2000/svg" viewBox="0 0 248 248"><defs><style>.cls-1{fill:#fff;}.cls-2{fill:#e35500;}.cls-3,.cls-4,.cls-5{fill:#f0ab00;}.cls-4{opacity:0.7;}.cls-5{opacity:0.4;}</style></defs><title>282131-pictogram-neg</title><g id="outlines_--_combound_path" data-name="outlines -- combound path"><path class="cls-1" d="M212.54,62s0,0,0,0a28.67,28.67,0,0,0-54.86-5.74h0a16.83,16.83,0,0,0-15.79,14h-.31a17,17,0,0,0,0,34.08h64.1A21.7,21.7,0,0,0,212.54,62ZM184.26,42.22A24.65,24.65,0,0,1,206,78.46a21,21,0,0,0-16.78-.9c-.37-.32-.76-.61-1.14-.91A10.49,10.49,0,1,0,174.61,71a27.86,27.86,0,0,0-14.28,1.9,24.66,24.66,0,0,1,23.93-30.69Zm-6.5,24.67a6.49,6.49,0,1,1,6.5,6.5A6.5,6.5,0,0,1,177.77,66.9Zm27.87,33.39h-64.1a13,13,0,1,1,1.81-25.95l2.17.3.11-2.18a12.82,12.82,0,0,1,10.71-12,28.53,28.53,0,0,0,.36,14.33A27.81,27.81,0,0,0,153.46,77l2.53,3.1a23.81,23.81,0,0,1,31.47,1.22l1,.93,1.23-.55a17,17,0,0,1,20.17,4.78l3.1-2.53a20.92,20.92,0,0,0-3.49-3.38,28.48,28.48,0,0,0,3.49-13.68c0-.14,0-.28,0-.42a17.69,17.69,0,0,1-7.29,33.81Zm-92,65.39H41V118.26h72.62Zm-68.62-4h64.62V122.26H45Zm77.13,9.53V109.75H32.54v61.47l-19.81,15.5h0v14.52H142V186.72h0ZM36.54,113.75h81.64v56.44H36.54ZM138,197.25H16.71v-6.53H138ZM63.25,186.72l3.51-4H87.93l3.51,4Zm33.5,0-7-8H64.95l-7,8H19.22l16-12.53h84.26l16,12.53Z"/></g><g id="color_band" data-name="color band"><path class="cls-2" d="M175.3,91.63v12.74a26.92,26.92,0,0,1-26.89,26.88h-6.51v-8.57l-19.7,17.75,19.7,17.75v-8.57h6.51a45.3,45.3,0,0,0,45.25-45.24V91.63Z"/></g><g id="_100_band" data-name="100% band"><path class="cls-3" d="M175.29,104.36a26.79,26.79,0,0,1-.92,7l17.68,4.74.58-2.17a45.24,45.24,0,0,0,1-9.54V91.63H175.3Z"/></g><g id="_70_band" data-name="70% band"><path class="cls-4" d="M161.75,127.69l9.18,15.89A45.59,45.59,0,0,0,188.13,126a45.08,45.08,0,0,0,3.92-9.93l-17.68-4.74A27,27,0,0,1,161.75,127.69Z"/></g><g id="_40_band" data-name="40% band"><path class="cls-5" d="M161.75,127.69a26.73,26.73,0,0,1-13.34,3.56h-6.51v18q1.71.25,3.4.37h3.11a45,45,0,0,0,22.52-6Z"/></g></svg>