<svg xmlns="http://www.w3.org/2000/svg" viewBox="0 0 248 248"><defs><style>.cls-1{fill:#fff;}.cls-2{fill:#e35500;}.cls-3,.cls-4,.cls-5{fill:#f0ab00;}.cls-4{opacity:0.7;}.cls-5{opacity:0.4;}</style></defs><title>283206-pictogram-neg</title><g id="_40_band" data-name="40% band"><path class="cls-1" d="M219.28,146A16,16,0,0,0,204,130a16,16,0,0,0-10.55-28H143.65c9-18.27,6.53-53,6.34-55.44C150,40.76,146.45,30,133.38,30s-16.62,10.87-16.62,16.61c0,33-18.41,56.34-35.51,57.62v4c9.78-.59,19.53-7,27-17.87,8.08-11.79,12.53-27.33,12.53-43.75a16.36,16.36,0,0,1,1.67-6.53c2.07-4,5.75-6.09,11-6.09s8.87,2,10.94,6.09A16.36,16.36,0,0,1,146,46.61v.16c0,.4,3,39.31-7.18,55.7a16,16,0,0,0-4,29.39A16,16,0,0,0,134.6,160a16,16,0,0,0,0,28,16,16,0,0,0-3.44,25.44c-18.52-1-43-3.36-49.91-4.89v4.08c10.28,2,41.29,4.63,59,5.24h.12c2.44.08,4.62.13,6.45.13h45.69a16,16,0,0,0,9.68-28.75,16,16,0,0,0,5.15-27.77A16,16,0,0,0,219.28,146Zm-88.49-28a12,12,0,0,1,12-12h50.7a12,12,0,1,1,0,24h-50.7A12,12,0,0,1,130.79,118Zm73.68,84a12,12,0,0,1-12,12H142.34a11.8,11.8,0,0,1-1.69-.12h-.05A12,12,0,0,1,142.34,190h50.13A12,12,0,0,1,204.47,202Zm4.87-28a12,12,0,0,1-12,12h-55a12,12,0,0,1,0-24h55A12,12,0,0,1,209.34,174Zm-6.07-16H142.34a12,12,0,0,1,0-24h60.93a12,12,0,1,1,0,24Z"/><polygon class="cls-2" points="30.72 100.98 30.72 123.96 30.72 129.48 30.72 214.99 81.25 214.99 81.25 129.48 81.25 123.96 81.25 100.98 30.72 100.98"/><rect class="cls-3" x="30.72" y="100.98" width="50.53" height="28.5"/><rect class="cls-4" x="30.72" y="129.48" width="50.53" height="28.5"/><rect class="cls-5" x="30.72" y="157.98" width="50.53" height="28.51"/></g></svg>