<svg xmlns="http://www.w3.org/2000/svg" viewBox="0 0 248 248"><defs><style>.cls-1{fill:#e35500;}.cls-2,.cls-3,.cls-4{fill:#f0ab00;}.cls-3{opacity:0.7;}.cls-4{opacity:0.4;}.cls-5{fill:#fff;}</style></defs><title>284624-pictogram-neg</title><g id="color_band" data-name="color band"><path class="cls-1" d="M177.46,82.87l.27-1.24.5-2.42h0l.84-4,.06-.29,0-.08,8-38.3H155.41l-8,38.3h0l-.9,4.37h0l-.51,2.42-.26,1.24H113.74l.26-1.24,9.47-45.09H91.68L82.22,81.63,82,82.87H46.3v25.66H76.58l-3.75,18.17-3.76,18.17H35.74v23.33h0v2.34H63.57l-.25,1.24-9.34,45h31.8l9.57-45,.27-1.24h31.81l-.27,1.24-.45,2.15-9,42.88H149.5l9-42.88.45-2.15.26-1.24h39.11V144.89H164.58l3.76-18.17,0-.13,3.73-18h38.79V82.87H177.46Zm-40.88,43.72,0,.13-3.76,18.17H100.84l3.9-18.17,3.89-18.17h31.68Z"/></g><g id="_100_band" data-name="100% band"><path class="cls-2" d="M179.73,36.54h7.46l-8,38.3,0,.08-.06.29-.84,4h0l-.5,2.42H145.94l.51-2.42h0l.9-4.37h0l8-38.3ZM114,81.63l9.47-45.09H91.68L82.22,81.63Z"/></g><g id="_70_band" data-name="70% band"><polygon class="cls-3" points="177.47 82.87 177.73 81.63 145.94 81.63 145.68 82.87 129.96 82.87 113.74 82.87 114 81.63 82.22 81.63 81.95 82.87 46.46 82.87 46.46 82.87 46.46 82.88 46.3 82.88 46.3 108.54 46.46 108.54 46.46 108.55 76.58 108.55 72.83 126.72 104.74 126.72 108.63 108.55 124.43 108.55 140.31 108.55 136.58 126.59 136.55 126.72 168.34 126.72 168.37 126.59 172.1 108.55 209.06 108.55 210.89 108.55 210.89 82.87 209.06 82.87 177.47 82.87"/></g><g id="_40_band" data-name="40% band"><polygon class="cls-4" points="168.34 126.72 136.55 126.72 132.79 144.89 116.6 144.89 100.84 144.89 104.74 126.72 72.83 126.72 69.07 144.89 35.76 144.89 35.76 144.9 35.74 144.9 35.74 168.22 35.74 168.22 35.74 170.56 35.76 170.56 35.76 170.56 35.76 170.56 63.57 170.56 63.32 171.81 95.35 171.81 95.62 170.56 111.08 170.56 127.43 170.56 127.16 171.81 158.95 171.81 159.21 170.56 198.32 170.56 198.32 144.89 164.58 144.89 168.34 126.72"/></g><g id="outlines_--_combound_path" data-name="outlines -- combound path"><path class="cls-5" d="M76.58,108.55l-3.75,18.17-3.76,18.17H35.74v-2.33h0v-1.66H65.81l2.93-14.17,2.93-14.17H46.3v-4H76.58Zm95.52,0-3.73,18,0,.13-3.76,18.17h33.74v-4H169.49l2.93-14.17,0-.13,2.91-14h35.53v-4H172.1Zm-35.52,18,0,.13-3.76,18.17H100.84l3.9-18.17,3.89-18.17h31.68Zm-1.18-14H111.86l-3,14.17-3,14.17h23.74l2.94-14.17,0-.13Zm74.32-33.68H182.39l8.89-42.33h-4.09l-8,38.3,0,.08-.06.29-.84,4h0l-.5,2.42-.27,1.24h33.43v-4Zm-174,91.69h0v4H58.66l-8.77,42.27H54l9.34-45,.25-1.24H35.75ZM130,82.87h15.72l.26-1.24.51-2.42h0l.9-4.37h0l8-38.3h-4.09l-8.89,42.33H118.67l8.89-42.33h-4.09L114,81.63l-.26,1.24Zm29,88.94L158.5,174l-9,42.88h4.08l8.88-42.27h35.86v-4H159.21ZM82,82.87l.27-1.24,9.46-45.09H87.6L78.71,78.87H46.3v4H82Zm13.67,87.7-.27,1.24-9.57,45h4.09l9-42.27H122.5l-8.88,42.27h4.09l9-42.88.45-2.15.27-1.24H95.62Z"/></g></svg>