<?xml version="1.0" encoding="utf-8"?>
<!-- Generator: Adobe Illustrator 19.1.0, SVG Export Plug-In . SVG Version: 6.00 Build 0)  -->
<svg version="1.1" id="Layer_1" xmlns="http://www.w3.org/2000/svg" xmlns:xlink="http://www.w3.org/1999/xlink" x="0px" y="0px"
	 viewBox="0 0 24 24" style="enable-background:new 0 0 24 24;" xml:space="preserve">
<style type="text/css">
	.st0{fill:#957F61;}
	.st1{fill:none;}
	.st2{fill:#44332D;}
	.st3{fill:#C0B599;}
	.st4{fill:#1C1312;}
	.st5{fill:#A6D174;}
	.st6{fill:#7C7FA5;}
	.st7{fill:#E83E31;}
	.st8{fill:#FFD23D;}
</style>
<g>
	<circle class="st0" cx="12" cy="12" r="12"/>
	<g>
		<path class="st1" d="M15.1,9.1h1.1c0.2,0,0.4-0.2,0.4-0.4V7.6c0-0.2-0.2-0.4-0.4-0.4h-1.1c-0.2,0-0.4,0.2-0.4,0.4v1.1
			C14.7,8.9,14.9,9.1,15.1,9.1z"/>
		<g>
			<circle cx="12.1" cy="12.3" r="1.8"/>
			<g>
				<path class="st2" d="M12.1,11c0.7,0,1.3,0.6,1.3,1.3s-0.6,1.3-1.3,1.3s-1.3-0.6-1.3-1.3S11.4,11,12.1,11 M12.1,10
					c-1.3,0-2.3,1-2.3,2.3s1,2.3,2.3,2.3s2.3-1,2.3-2.3S13.4,10,12.1,10L12.1,10z"/>
			</g>
		</g>
		<path class="st3" d="M14.9,11c0.2,0.4,0.3,0.8,0.3,1.3c0,1.7-1.4,3.1-3.1,3.1S9,14,9,12.3c0-0.5,0.1-0.9,0.3-1.3H5.5v4.4
			c0,1.8,1.5,3.2,3.2,3.2h6.5c1.8,0,3.2-1.5,3.2-3.2V11H14.9z"/>
	</g>
	<path class="st4" d="M14.6,7.6c0-0.2,0.2-0.5,0.5-0.5h1.2c0.2,0,0.5,0.2,0.5,0.5v1.2c0,0.2-0.2,0.5-0.5,0.5h-1.2
		c-0.2,0-0.5-0.2-0.5-0.5C14.6,8.8,14.6,7.6,14.6,7.6z"/>
	<g>
		<path class="st1" d="M16.2,7.3h-1.1c-0.2,0-0.4,0.2-0.4,0.4v1.1c0,0.2,0.2,0.4,0.4,0.4h1.1c0.2,0,0.4-0.2,0.4-0.4V7.6
			C16.6,7.4,16.4,7.3,16.2,7.3z"/>
		<path class="st2" d="M15.2,5.7H8.9v4.1H8.3H7.7H7.1H6.5V6.5c-0.6,0.6-1,1.4-1,2.4v0.9h4.8c0.5-0.4,1.1-0.6,1.8-0.6
			s1.3,0.2,1.8,0.6h2.4h2.2V8.9C18.5,7.1,17,5.7,15.2,5.7z M16.6,8.8c0,0.2-0.2,0.4-0.4,0.4h-1.1c-0.2,0-0.4-0.2-0.4-0.4V7.6
			c0-0.2,0.2-0.4,0.4-0.4h1.1c0.2,0,0.4,0.2,0.4,0.4V8.8z"/>
		<path class="st5" d="M7.7,5.8v4h0.6V5.7C8.1,5.7,7.9,5.8,7.7,5.8z"/>
		<path class="st6" d="M8.3,5.7v4.1h0.6V5.7H8.7C8.6,5.7,8.5,5.7,8.3,5.7z"/>
		<path class="st7" d="M7.1,9.8V6.1C6.9,6.2,6.7,6.4,6.5,6.5v3.3H7.1z"/>
		<path class="st8" d="M7.1,6.1v3.7h0.6v-4C7.5,5.9,7.3,6,7.1,6.1z"/>
	</g>
</g>
</svg>
