<?xml version="1.0" encoding="UTF-8" standalone="no"?> <svg xmlns:dc="http://purl.org/dc/elements/1.1/" xmlns:cc="http://creativecommons.org/ns#" xmlns:rdf="http://www.w3.org/1999/02/22-rdf-syntax-ns#" xmlns:svg="http://www.w3.org/2000/svg" xmlns="http://www.w3.org/2000/svg" xmlns:sodipodi="http://sodipodi.sourceforge.net/DTD/sodipodi-0.dtd" xmlns:inkscape="http://www.inkscape.org/namespaces/inkscape" version="1.1" id="Layer_1" x="0" y="0" viewBox="0 0 242.60001 177.80402" xml:space="preserve" sodipodi:docname="epam_Just-BI_Logo_FINAL_V1 (1).svg" width="242.60001" height="177.80402" inkscape:version="1.0.1 (c497b03c, 2020-09-10)"><metadata id="metadata917"></metadata><defs id="defs915"></defs><style id="style902">.st0{fill:#12202a}.st1{fill:#b72126}.st2{fill:#231f20}</style><path class="st0" d="m 0,141.80402 h 10.9 v 3.2 c 0,2.7 1.4,3.8 4.9,3.8 h 4.4 c 3.7,0 5.8,-0.5 5.8,-3.8 v -24 h 11.2 v 24.9 c 0,10 -5.5,12 -15.6,12 h -7.3 c -10.5,0 -14.3,-3.2 -14.3,-11.7 z m 45.2,-14.7 h 9.3 v 17.6 c 0,3.9 1.4,5.4 5.2,5.4 h 9.2 c 3.8,0 5.2,-1.5 5.2,-5.4 v -17.6 h 9.3 v 19.6 c 0,7.6 -3.9,11.2 -12.5,11.2 H 57.7 c -8.6,0 -12.5,-3.6 -12.5,-11.2 z m 44.9,20.4 h 9.3 c 0,3.2 1.3,3.5 4,3.5 h 11.4 c 2,0 4,-0.2 4,-2.6 0,-2.6 -1.1,-2.8 -13.1,-2.8 -14,0 -15.6,-1.7 -15.6,-9.2 0,-5.5 0.5,-9.7 12.3,-9.7 h 13 c 10.8,0 11.8,3.7 11.8,9 v 1 h -9.3 c 0,-2.2 -0.3,-3.1 -4.5,-3.1 h -10.3 c -2.1,0 -3.5,0.7 -3.5,2.4 0,2.6 1.1,2.7 11.1,2.7 14.5,0 17.9,0.8 17.9,9.7 0,8.2 -2.8,9.5 -15.2,9.5 h -11.3 c -8.5,0 -11.9,-1.6 -11.9,-8.2 v -2.2 z m 42.7,-20.4 h 35.5 v 7.5 h -13.1 v 22.9 h -9.3 v -22.9 h -13.1 z m 35.3,16 h 11.8 v 7.6 h -11.8 z" id="path904"></path><path class="st1" d="m 187.3,127.10402 h 26.8 c 7.4,0 11,2 11,8 0,5.2 -1.9,6.2 -4.5,7 v 0.1 c 4.1,0.5 5.6,2.7 5.6,7.3 0,6.7 -3.9,8.1 -9.3,8.1 h -29.6 z m 9.4,12 h 16.5 c 1.7,0 2.7,-0.6 2.7,-2.4 0,-1.8 -1,-2.4 -2.7,-2.4 h -16.5 z m 0,11.1 h 16.7 c 2,0 3.4,-0.5 3.4,-2.2 0,-2.1 -1.3,-2.5 -3.4,-2.5 h -16.7 z m 36.6,-23.1 h 9.3 v 30.4 h -9.3 z M 154.1,28.304021 c -4.4,-3.3 -1.2,-0.9 -2.2,-1.6 h -0.3 l -0.8,0.2 -1.6,0.3 c -0.5,0.1 -1,0.1 -1.4,0.1 h -0.1 c -0.5,-0.9 -0.8,-1.5 -1,-1.8 0.4,0.3 0.6,0.5 0.6,0.6 0,0.2 3.5,1 3.3,0.6 1.4,-0.3 1.8,-1 0.3,-1.9 -1,-0.5 -1.5,-1.5 -1.5,-1.4 0,0.4 -1.4,-1.8 -1.7,-2.1 0.5,-2.4 0.7,-4.8 0.6,-5.1 l -0.1,-0.1 c -1.5,-0.6 -2.7,0.3 -3.2,0.3 h -0.1 c 0.1,-0.2 -0.1,2 -0.5,4.2 0.1,0.9 0.3,1.6 0.5,2.2 -0.5,-0.6 -0.8,-1.1 -1.3,-1.7 0.1,1.1 -0.1,-0.4 -0.1,0.1 -0.4,-2.4 -1.2,-3.9 -1.9,-0.1 0.6,3.1 1.8,5.3 1.8,5.6 0,0 0.6,1.1 1.4,2.7 l 0.2,0.3 v 0.1 c -1.2,-0.8 1.6,1.1 1.3,0.9 h 1.2 c 0.5,0 1.1,0 1.6,-0.1 -1.9,2.3 -4.5,4.7 -4.3,5 v 0.3 c 0.7,1.9 2.4,1.3 2.8,1.4 h 0.1 c -0.4,-0.4 2.7,-2 5.6,-7.1 l 0.6,-1.2 z m -53.1,25.5 c -0.1,-0.1 0.1,0.7 0.7,0.8 0.5,-0.3 -0.3,0.9 1.2,-0.7 l 0.1,-0.2 0.3,-0.7 c 0.2,-0.5 0.3,-0.9 0.4,-1.3 0.2,-0.8 0.3,-1.4 0.3,-1.4 0,0 0,-3.8 -0.7,-7.5 -0.6,-2.1 -0.1,-3.1 -1.7,-5.6 -0.4,-0.5 -0.7,-1 -0.8,-1.2 2,-0.7 2.2,-5.1 2,-4.9 -0.3,-1.9 -1,-2.8 -1.9,-0.3 -0.2,0.8 -0.9,1.6 -1.3,2 -0.4,0.1 -1.4,0.4 -2.4,1.2 -1.3,1.1 -2.2,2.4 -3.5,3.4 l -0.9,0.8 -0.2,0.2 c 0.5,-1.7 -0.7,2.3 -0.6,1.9 v 0.2 l 0.1,0.6 c 0.2,0.8 0.4,1.5 0.5,2.1 0.3,1.3 0.4,2.1 0.4,2.1 l 0.1,0.1 c 1.5,0.5 2.7,0.3 3.2,-0.3 l 0.1,-0.1 c 0,-0.1 -0.1,-1.1 -0.4,-2.4 -0.1,-0.6 -0.3,-1.3 -0.5,-2.1 l 0.4,-0.3 2,-2 c 0.2,0.4 0.6,0.9 1,1.4 0.2,-0.3 0.7,2.5 0.9,3.9 0.6,3.4 0.7,6.8 0.6,6.8 0,0 0.2,1 0.2,2 0.1,0.5 0,1 0.1,1.4 v 0.1 c 0,-0.1 0.1,-0.1 0.1,-0.1 0,0.1 -0.4,0.4 0.2,-0.2 v 0.3 m 1.9,-0.4 c 0,0 0,-0.1 0,0 -0.1,-0.2 -0.2,-0.3 -0.2,-0.4 0.5,0.9 0.1,0.2 0.2,0.4 M 131.2,9.0040215 c 1,-0.1 2,-0.6 2,-0.6 0,-0.5 4.7,-3 4.5,-2.1 l 0.1,-0.1 c 0.2,-0.5 0.4,-1.1 0.5,-1.5 0.3,-0.2 0.7,-0.9 1.8,-1.7 2.2,-1 4.4,0.5 4.5,0.7 0,0 1.2,0.8 3.1,1.9 0.5,0.3 1,0.6 1.6,0.9 l 0.9,0.5 0.5,0.2 0.1,0.1 c 1.1,1.4 1.6,1.8 2.3,2.8999995 2.4,3.4 3.6,7.7 4.1,9.5 h -0.1 c 0,0 -4.8,0.9 -4.7,0.8 v 0.1 c -0.2,1.5 0,2.7 0.2,3.2 v 0.1 c 0.3,0.1 5.2,-0.8 5.2,-0.9 0,0 1.4,-0.9 1.3,-0.9 0.3,-0.3 0.5,-0.7 0.3,-1.1 0.7,-0.2 1.2,-0.8 1.3,-1.2 0.1,-0.1 0,-0.1 0,-0.2 -0.2,0 -1.2,-6 -4.8,-11.0999995 -0.8,-1.2 -2,-2.6 -2.7,-3.3 -2.4,-1.8 -2.5,-1.4 -3.7,-2.3 -1.8,-1.1 -3,-1.8 -3,-1.8 0,0 -0.4,-0.20000001 -0.9,-0.50000001 -1.4,-0.5 -1.9,-0.5 -3.1,-0.6 -2.3,-0.1 -4,1.70000001 -3.7,1.50000001 -0.4,0.5 -0.7,1 -0.9,1.4 -0.7,-0.1 -2.6,-0.1 -4,0.7 -1.8,0.9 -3,2.1 -3,2.1 0,0 -1.1,1.7 -1,1.7 0.1,0.7 -0.5,1.9 1.3,1.6 M 97.8,67.404021 c 9.5,-3.7 15.7,-6.5 -0.3,-1.9 -2.2,0.8 -4.6,1.3 -7.1,2.6 5.4,-4.5 9.1,-7.6 10.1,-7.8 v -0.6 c -0.8,-1.2 0.6,-1.7 0.1,-2.3 -0.3,-0.8 -2.2,0 -2.9,1.1 h -0.6 c 1.2,-0.7 -1.7,1 -1.4,0.8 l -0.2,0.2 c -0.3,0.3 -0.7,0.6 -1.1,1 -1.8,1.6 -4.4,3.8 -7.5,6.4 -6.2,5.2 -14.5,12 -22.8,18.6 -2.1,1.7 -4.2,3.3 -6.2,4.9 -1,0.8 -2.1,1.6 -3.1,2.3 l -0.7,0.5 c -0.1,0.1 -0.2,0.2 -0.3,0.2 h -0.1 c -2,3.1 -0.6,0.9 -1,1.6 v 0.8 c 4,3.3 1.1,0.9 2,1.7 h 0.2 l 0.9,-0.1 c 1.2,-0.2 3.2,-0.6 4.3,-2.1 0.5,-0.4 1.6,-1.4 2.4,-2.1 1.7,-1.4 3.4,-2.8 5,-4 6.2,-4.9 10.5,-8.1 10.5,-8.1 0,0 5,-4 10,-7.9 4.4,-4.5 10.2,-5.7 9.8,-5.8 m -22.2,-45.4 0.1,0.2 c 0.7,1 1.3,2 2.4,2.8 0.9,0.9 2.1,1.6 3.4,2 l 0.4,0.1 v 0.2 c 0.1,2 0.2,3.8 0.2,5.4 0,3.1 -0.4,5.1 -0.4,5.1 0,0 -0.1,0.6 -0.2,1.4 -0.1,0.4 -0.2,0.9 -0.4,1.3 -0.1,0.3 -0.2,0.4 -0.3,0.5 l -0.1,0.1 c 0.1,-0.3 -0.7,2.5 -0.4,1.3 v 0.2 l 0.2,0.6 c 1.2,2.8 3,4.5 2.8,4.4 1.5,1.8 2.8,3.3 3,3 0,0.7 0.1,1.3 0.2,1.6 v 0.1 c 0.3,-0.2 0.9,0.6 3.9,-0.5 1.6,-0.8 2.9,-1.7 2.9,-1.7 0,0 1.3,-1.5 1.2,-1.6 0.4,-0.8 0.4,-1.7 -1,-1.6 -0.9,0 -1.9,0.2 -1.9,0.2 0,0 -1.3,0.9 -2.5,1.5 0.1,0.4 -2.7,0.1 -2.4,0.2 l -0.1,0.1 c -0.1,0.4 -0.2,0.8 -0.2,1.2 -0.1,-0.6 -0.5,-1.7 -1.4,-3.6 -0.8,-1.3 -2.3,-5 -1.7,-4.2 1.4,-2.1 1.5,-3.6 1.6,-3.6 0,0 0.5,-2.3 0.6,-5.7 0,-1.7 0,-3.6 -0.2,-5.7 l -0.1,-1.6 v -0.3 c 1.5,1.3 -2,-1.8 -1.7,-1.5 l -0.3,-0.1 -0.6,-0.1 c -0.6,-0.2 -1.3,-0.4 -1.8,-0.9 h 3.8 c 0.8,-0.9 -1.7,2 1.7,-2 v -0.1 l -0.1,-0.6 c -0.5,-3.3 -0.8,-5.5 -0.9,-5.7 0,-0.1 -0.1,-0.2 -0.2,-0.3 -1.7,-1.7 -2.8,-0.4 -3.1,0.5 -0.1,0.1 -0.1,0.2 0,0.2 0,0.1 0.3,1.8 0.7,4.4 h -5.6 c -3,5.3 -0.8,1.6 -1.5,2.8 m 32,79.299999 v -0.1 l -0.1,-0.9 c -0.1,-1.099999 -0.2,-2.099999 -0.4,-2.799999 -0.3,-1.6 -0.6,-2.5 -0.6,-2.5 -0.1,0 -0.3,-1.1 -1.3,-2.7 -0.4,-0.4 -0.6,-0.9 -1.2,-1.3 l -1,-0.6 h -0.1 c 0.9,-0.1 -0.4,0.1 -1.1,0.2 0,-0.1 -0.1,-0.2 -0.1,-0.2 l -0.3,-1.2 -0.1,-0.7 v -0.4 c 1.3,1.1 -1.8,-1.5 -1.5,-1.3 h -0.1 c 0.2,-0.8 0.4,-1.3 0.3,-1.2 1.1,-2.9 2.1,-5.8 1.7,-6.5 -0.2,-0.5 -0.7,0.8 -3.4,5.6 -0.4,0.7 -0.7,1.6 -0.9,2.5 l -0.1,0.7 v 0.3 c -0.3,-0.2 2.3,2.1 1.2,1.1 h 0.4 c 0,0.5 0.1,1 0.2,1.5 0.2,1 0.6,1.8 0.8,2.5 -0.4,-0.1 2,0.5 2.6,0.7 0.1,0.1 0.1,0.2 0.2,0.3 0.3,0.7 0.5,1.1 0.5,1.2 0,0 0.3,0.7 0.6,2.1 0.1,0.7 0.3,1.5 0.4,2.499999 v 0.5 c -0.2,0.1 -0.3,0.2 -0.5,0.3 -0.4,0.2 -0.8,0.3 -1.3,0.4 l -0.5,-0.5 h -0.6 c -1,-0.1 -1.6,-0.8 -3.3,-2.099999 -0.4,-0.3 -0.9,-0.5 -1.4,-0.8 v -0.2 c 0.3,0.3 -1.9,-1.5 -2.3,-2 -0.2,-0.2 -0.5,-0.6 -0.7,-1 0,-0.2 0,-1.2 0.1,-1.7 0.2,-3.3 0.7,-6.8 1.1,-10 l 0.4,-0.3 0.1,-0.1 0.7,-1.4 v -0.4 c 0,-0.7 0,-1.4 0.2,-2 0.2,-1.3 0.7,-2.3 1.3,-3.1 0.6,-0.8 1.5,-1.2 2.3,-1.6 0.4,-0.2 0.9,-0.3 1.2,-0.4 l 0.3,-0.1 h 0.2 c 2.7,-3.3 0.7,-0.9 1.3,-1.7 v -3.2 c 0,-0.1 -0.1,-0.4 -0.1,-0.5 -1.5,-3.1 -2.7,-1.2 -3.2,0.1 -0.1,0.2 -0.1,0.2 -0.1,0.4 v 2 c -0.3,0.1 -0.6,0.2 -1,0.3 -1.1,0.5 -2.5,1.1 -3.6,2.4 -1.1,1.2 -1.9,2.9 -2.2,4.6 -0.2,0.8 -0.2,1.5 -0.3,2.3 l -0.3,0.2 -0.1,0.1 h -0.1 c 0.1,-0.3 -1.3,2.6 -0.7,1.4 v 0.2 c -0.4,3.1 -0.9,6.6 -1.1,10.2 0,1 -0.2,1.7 0,3 0.7,1.9 0.9,2 2,3.1 0.3,0.2 0.6,0.5 1,0.6 0.2,0.2 0.6,0.7 1.4,1.699999 h 0.1 l 0.2,0.1 c 0.3,0.1 0.5,0.2 0.8,0.3 0.9,0.4 2.2,2.1 4.2,2.7 0.5,0.2 0.9,0.2 1.4,0.3 h 0.1 c 0.3,0.2 0.5,0.4 0.9,0.7 h 0.1 l 0.3,-0.1 0.5,-0.1 1,-0.3 c 0.7,-0.2 1.4,-0.5 2,-0.9 l 0.4,-0.3 0.2,-0.1 c 0.1,0 1.7,-3.199999 1,-1.8 z m -5.5,-7.499999 0.1,-0.1 0.1,-0.1 c 0.1,0.1 0.1,0.2 0.2,0.2 -0.1,0.1 -0.2,0 -0.4,0 m -9.1,5 c 0.2,0.3 0.1,0.1 0,0 m 1.4,-3.1 c -0.1,0 -0.2,-0.1 -0.3,-0.3 0,0.1 0.1,0.2 0.3,0.3 z m 35.5,-63.1 c 1.7,-1.8 2,-5 2,-5 0,0 0.1,-1.1 -0.1,-2.7 l 0.1,-0.2 0.9,-1.2 c 0.5,-0.6 1.5,-1.9 1.8,-3.4 1.2,-5.2 -2.1,-9.9 -2.7,-9.9 h -0.2 c -1.8,0.4 -1.7,2.1 -1.9,2.5 v 0.1 c 0,-0.5 2.2,2.8 1.6,6.4 -0.1,0.8 -0.4,1.1 -1.1,2.1 l -0.9,1.2 -0.4,0.5 -0.2,0.2 c -0.6,2.6 -0.2,0.7 -0.3,1.3 v 0.2 c 0.2,1.4 0.1,2.4 0.1,2.4 0.2,0 -0.1,4.6 -0.2,4.3 -0.2,0.9 -0.4,1.1 -0.6,1.5 -0.5,0.4 0.5,1.4 2.1,-0.3 m -39.4,-15.5 c 0.3,0 0.7,0 1,-0.1 l 0.5,-0.1 0.2,-0.1 c 0.1,-0.1 0.2,-0.2 0.2,-0.3 1.8,0.5 3.1,0.9 3.1,0.9 0,0.2 8.6,0.9 15,6.5 3.4,2.6 5.9,5.8 8.2,8.4 1.9,2.9 5.9,3.8 5.6,3.5 0.1,0 0.2,-0.1 0.3,-0.1 1.9,-1.1 1.5,-2.4 0.5,-3.1 -0.1,-0.1 -0.2,-0.1 -0.2,-0.1 -0.4,-0.1 -1.4,0.2 -3.6,-2.4 -2,-2.3 -5,-5.9 -8.4,-8.7 -3.2,-2.7 -8.1,-5.4 -10.3,-5.6 -4.3,-1.5 -5.6,-1.5 -5.8,-1.6 0,0 -0.7,-0.1 -1.6,-0.2 -0.5,-0.1 -1,-0.1 -1.7,-0.2 l -0.9,-0.1 -0.5,-0.1 H 92 c -0.6,0.5 -0.9,0.8 -1.2,1 -0.2,0.1 -0.4,0.1 -0.6,0.2 -0.4,0.1 -0.8,0.1 -1.1,0 -0.7,-0.1 -1.1,-0.4 -1,-0.3 -2.7,-1.9 -5.5,-4.4 -1.1,1.5 0.8,0.6 2.2,1.1 3.5,1.1 m 100,60 c -1.7,0.6 -3,-0.4 -3,-0.4 0.1,0.3 -2.4,-1.5 -3.7,-5.2 -1.1,-3.4 -2.9,-7.5 -3.4,-7.8 -0.1,0 -0.2,-0.1 -0.3,-0.1 -2,0.1 -1.6,2.1 -2.2,2.3 0.2,0.1 1.6,3 2.8,6.7 1.2,3.9 4.9,7.2 5.3,7 0,0 1.5,0.7 3.2,0.3 1.6,-0.3 2.5,-1.3 2.4,-1.2 1.5,-1.7 1.4,-2.8 -1.1,-1.6 m -10.6,3.5 v -0.1 l -0.1,-0.3 -0.2,-0.5 c -0.1,-0.3 -0.1,-0.5 -0.1,-0.5 0,0 -1.5,-3.2 -1.5,-3 -0.7,-1.1 -1.6,-2.1 -1.8,0.4 -0.2,1.5 0.1,3.4 0.1,3.4 0,0 0.1,0.2 0.1,0.5 l 0.1,0.4 c -0.5,0.9 -1.2,1.9 -1.7,3 -1.4,2.6 -2.7,5.8 -2,7 0,0.1 0.2,0.2 0.2,0.2 1.8,0.4 2.1,-1.5 2.9,-1.4 h 0.1 c -0.2,1.1 0.3,-1.7 1.7,-4.1 0.6,-1.2 1.4,-2.5 1.9,-3.3 l 0.1,-0.2 c 0.4,-3 0.1,-0.9 0.2,-1.5 m 14.6,-8 v -0.1 c -0.4,0.6 -2,-3.8 -5.7,-9.3 -2.1,-2.2 -3.8,-4 -4.8,-5.6 -0.5,-0.8 -0.8,-1.5 -0.9,-1.9 l -0.1,-0.3 -1.2,-1.2 c -0.1,0 -0.2,-0.1 -0.2,-0.1 0.1,0 -6.5,-2.2 -6.3,-2 -0.9,-0.2 -1.6,-0.2 -2.2,-0.2 0.1,-0.4 0,-1.1 0,-1.1 v -0.2 c -0.1,-0.1 -3.9,-4.6 -9.4,-6.6 -2.3,-1.2 -6.3,-1.4 -7.9,-0.8 -1.9,0.3 -3.2,0.5 -3.2,0.5 -0.2,0 -6.8,1.5 -5.3,1.1 -0.3,-0.1 -0.6,-0.2 -0.9,-0.2 0.3,-0.8 0.5,-1.9 0.1,-3 -0.2,-0.7 -0.5,-1.3 -0.8,-1.7 -0.1,-0.5 -0.2,-1.4 -0.3,-1.4 -0.3,-0.7 -0.9,-1.3 -1.8,-0.4 -0.6,0.5 -1.2,1.2 -1.2,1.2 0,0 0,0.1 -0.1,0.2 l -0.1,0.3 v 0.2 c 0.7,2.3 0.5,1.6 0.4,1.4 v 0.1 c 0.2,0.2 0.4,0.6 0.5,1 0.3,0.7 -0.2,1.2 -0.1,1.3 l 0.1,0.1 c 0.5,0.4 0.9,0.7 1.3,0.9 0.1,0.3 0.6,0.9 1.9,1.7 3.2,1.2 6.2,0.5 6.4,0.7 0,0 1.3,-0.2 3.3,-0.5 0.8,0 2.7,-0.6 2.9,-0.3 1.1,0.2 2.3,0.4 3.4,0.9 4.7,1.6 8.2,5.7 8.2,5.7 h 0.2 c 0.5,-0.4 1.1,-0.6 1.6,-0.6 0.1,0.3 0.8,0.8 2.2,1.5 2.2,1.4 5.4,3.2 5.4,3.2 0,0 0.1,0 0.2,0.1 0.2,0.6 0.5,1.3 1,2 1.2,2 3.3,4.3 5.2,6.2 2.6,3.6 5.2,10.2 6.4,10 h 0.3 c 2,-0.6 1.4,-2.3 1.5,-2.8 m -12.8,-18.5 -0.2,-0.2 0.2,0.2 m -14,6.9 c -1.1,1.3 -1.3,3.7 -1.4,3.7 -0.1,-0.1 -0.1,3.9 2.6,7 2.8,3.4 7.4,2.7 7.4,2.7 l 0.1,-0.1 c 0.6,-1.5 -0.2,-2.7 -0.5,-3.1 0,-0.1 -0.1,-0.1 -0.1,-0.1 0,0 -2.7,0.5 -4.4,-1.5 -1.7,-1.8 -1.8,-4.7 -1.7,-4.7 -0.1,0 -0.3,-3.4 -0.2,-3.3 0,-1.5 -0.4,-2.9 -1.8,-0.6 m -51.7,31.2 c 0,-0.1 -0.1,-0.1 -0.1,-0.2 l 0.1,0.3 v -0.1 m 23.6,-16 c 0.8,-0.3 1.2,-0.5 1.4,-0.8 0.5,0 0,-1 -1.6,-1.1 -1.9,-0.4 -4.4,0.1 -4.4,0.1 0,0 -3.8,1.2 -7,3.5 -3.4,2.2 -5.6,5.9 -5.6,6 v 0.2 c 0.3,0.6 0.7,0.9 1.1,1.2 -0.3,0.5 -0.4,2.5 0.5,6.4 0.6,3 1.4,6.8 0.9,9.299999 -0.1,0.6 -0.3,1.1 -0.5,1.4 -0.1,0.2 -0.2,0.3 -0.4,0.4 l -0.2,0.2 -0.1,0.1 c 0.1,-0.1 -0.3,0.5 -0.5,1 -0.2,0.2 -0.3,0.2 -0.3,0.2 l -0.4,0.4 c 0.1,0.4 -1.2,-0.1 -1.5,2.7 0,0.5 0,1.2 -0.1,2 l -1.8,0.7 c -1.2,0.5 -2.5,1 -3.8,1.6 0.9,-2 2.7,-4 4.6,-5.6 2.4,-5.1 1.8,-7.699999 1.2,-11.699999 -0.2,-0.9 -0.7,-2 -1.5,-2.8 l -0.5,-0.4 c -0.1,-0.4 -0.2,-0.5 -0.3,-0.8 l -0.9,-2.1 c -0.4,-0.4 0,-0.3 -0.4,-0.8 v -2.7 c -1.7,-2.9 -0.5,-0.8 -0.9,-1.5 l -0.1,-0.1 c -0.1,-0.1 -0.3,-0.2 -0.4,-0.3 -0.4,-0.5 -0.8,-1.3 -1.2,-2 -0.8,-1.5 -1.9,-2.6 -2.1,-2.6 -0.2,-0.1 -0.6,-0.2 -0.7,-0.2 -4.3,0.4 -1.3,2.3 -1.4,2.9 0,0.1 0,0.1 0.1,0.1 0.1,0 0.4,0.2 1,1.4 0.4,0.6 0.7,1.6 1.7,2.7 0.1,0.2 0.3,0.3 0.5,0.5 v 2.4 c 0.7,2.1 0.4,0.9 0.6,1.6 0.3,0.6 0.5,1.2 0.8,1.9 l 0.2,0.6 c 0.4,0.5 1.4,2 1.3,1.8 l 0.1,0.1 c 0.2,0 0.5,0.6 0.6,1.2 0.6,2.4 0.5,6.199999 -0.4,8.599999 -1.5,1.3 -4.9,4.7 -5.8,8.2 -0.1,0.4 -0.3,0.9 -0.3,1.4 l -0.1,0.7 v 0.3 c -0.5,-0.3 4.1,3.1 2.2,1.6 l 0.3,-0.1 2.2,-0.7 c 1.4,-0.6 2.7,-1.1 3.8,-1.6 1.1,-0.5 2.2,-0.8 3.1,-1.2 -0.2,0.3 2.2,-2.5 1.2,-1.3 v -0.4 l 0.1,-0.4 0.1,-0.7 0.1,-1.4 v -0.5 c 0.2,-0.1 0.2,-0.2 0.2,-0.2 -0.2,0 1.3,-0.7 1.3,-2 1.7,-1.5 2.2,-4.3 1.9,-6.399999 -0.6,-4.3 -2.1,-7.9 -1.9,-7.6 -1,-2.9 -1.7,-5.1 -2,-5.9 0.5,0.2 1,0.3 1.3,0.3 h 0.1 c 0,-0.1 1.7,-3 4.6,-4.9 2.7,-2.1 6,-3.1 6,-3.1 0.3,-0.4 4.2,-1.9 4,-1.8 m -23.7,15.8 c -0.2,-0.2 -0.2,-0.3 0,0 m 58.2,1.1 c -0.1,-0.1 -0.2,-0.2 -0.2,-0.3 -0.2,-0.1 -0.3,0 -0.5,0.3 0.2,-0.4 -0.8,-0.1 -1.6,0 -1.7,0.3 -3.8,1.1 -4.5,1.3 0.4,-0.6 1,-1.2 1.5,-1.9 0.7,-0.9 1.6,-2 2.1,-3.2 -0.1,0 0,-0.1 0.1,-0.3 0.4,-0.3 0.3,-0.4 0.6,-0.6 0.3,-0.5 0.6,-0.9 0.9,-1.3 0.4,-0.7 0.7,-1.1 1,-1.8 0.2,-0.1 0.2,-0.1 0.2,-0.2 v -0.8 c 0.5,-0.6 0.3,-0.4 -0.1,0.1 -0.1,-0.4 -0.2,-0.7 -0.4,-1 0.1,0 0.2,0.1 0.3,0.1 0.7,-0.8 0.3,-1 0.3,-2.1 -0.2,-2.2 -2.5,-4.6 -2.6,-4.5 0.1,-0.1 -3.9,-2.7 -8.2,-3.5 -4.2,-1 -8.5,-1.1 -8.6,-1.1 l -0.1,0.1 c -0.4,0.6 -0.6,1.1 -0.6,1.6 -0.1,0.1 -0.2,0.4 -0.3,0.8 0.6,1.3 1.9,1.5 3.9,2.8 1.1,1 -1.6,2 -4.2,3.2 -2.3,1 -4,1.8 -4,1.8 l -1.8,0.9 -0.2,0.1 c 0.8,-1.3 -1.1,1.8 -0.9,1.5 v 1.3 h -0.4 c 1.1,-1.7 -1.6,2.3 -1.3,1.9 l 0.1,0.5 c 3.5,2.3 1.9,8.3 0,7.5 -0.2,-0.2 -0.5,-0.4 -0.8,-0.7 0,-0.1 -0.1,-0.1 -0.1,-0.2 -1.1,-1 -2.2,-1.9 -3.4,-2.9 v -0.3 l 0.2,-2.1 c 0.1,-1.2 0.2,-2.3 0.3,-3.4 l 0.6,-0.4 1.4,-1 c 3.6,-2.6 6,-4.3 6.1,-4.3 0.1,-0.1 0.2,-0.3 0.2,-0.3 1.3,-2.6 -0.5,-2.9 -1.8,-2.6 -0.2,0 -0.2,0 -0.3,0.1 -0.2,0.1 -2.7,1.8 -6.1,4.3 l -1.4,1 -0.7,0.5 -0.4,0.2 -0.2,0.1 c 0.7,-1.2 -1,1.6 -0.8,1.3 v 0.2 c -0.1,1.2 -0.2,2.5 -0.3,3.9 l -0.2,2 -0.1,1 v 0.4 c -0.2,-0.2 0.4,0.4 1.1,0.9 -0.1,0.2 -0.2,0.4 -0.3,0.5 v 0.1 c 0.1,0.1 4.1,3.5 4.1,3.5 h 0.1 c 0.4,0.3 0.8,0.7 1.1,0.9 l 0.4,0.3 0.1,0.1 c -1.3,-0.2 0.9,0.2 1.6,0.3 0.5,0.399999 0.2,0.1 0,0 l 0.1,0.1 0.3,-0.1 1.1,-0.4 c 0.7,-0.3 1.5,-0.7 2.1,-1.1 l 0.2,-0.1 0.1,-0.1 c 0.3,-0.6 -0.8,1.4 0.8,-1.4 v -0.6 l 0.1,-0.9 c 0.1,-1.3 0.4,-2.6 0.2,-4.3 l -0.4,-1.4 -0.1,-0.2 c -0.7,-0.3 1.3,0.5 -0.9,-0.4 0.5,-0.7 2,-2.6 1.1,-1.4 v -1.6 h 0.1 c 0.3,-0.2 0.4,-0.2 0.4,-0.2 0,0 3,-1.7 5.9,-3.4 l 1.1,-0.6 0.1,-0.1 c -0.2,0.3 1.4,-2.3 0.7,-1.2 v 0.2 c 0,0.2 -0.1,0.3 -0.2,0.4 l 0.3,-0.3 c 0.3,-0.2 0.5,-0.4 0.7,-0.5 1.4,-2.2 0.4,-0.6 0.7,-1.1 v -2 c 0.1,0.1 -0.4,-0.7 -0.7,-1 1.1,0.1 2.2,0.3 3.3,0.6 3.9,0.7 6.9,2.7 6.8,2.8 0.3,-0.3 3.2,2.6 3,2.6 0.2,0.2 0.3,0.5 0.5,0.7 -0.3,-0.2 -0.6,-0.3 -0.8,-0.3 h -0.1 c 0,0 -0.2,0.1 -0.1,0.1 0.2,-0.3 -1.2,1.7 -1.5,2 -0.1,0.2 -0.3,0.5 -0.4,0.8 l -0.7,1 c -0.1,0.1 -0.4,0.4 -0.2,0.3 l 0.3,-0.2 c 0.2,-0.2 -2,2 -1,1.1 v 0.1 l -0.1,0.3 c -0.3,0.8 -0.9,1.6 -1.5,2.4 -0.7,0.8 -1.5,1.8 -2.1,2.7 -0.3,0.5 -0.7,1 -0.9,1.5 l -0.3,0.8 -0.2,0.4 c 0.5,1 -1.2,-2.2 1.2,2.2 h 0.3 c 2.1,0.5 3.8,-0.3 3.7,-0.2 0.4,0 4.8,-3 4.6,-2.9 0.5,-0.3 0.9,-0.6 1.2,-0.9 l 0.2,-0.2 c 0.6,-1 -0.1,-0.3 0.1,-0.6 m -15.3,-17 c -0.1,0 -0.1,0 0,0 -0.1,0 -0.1,0 0,0 m 14.1,6.9 v 0.1 c -0.1,0 -0.1,0 0,-0.1 -0.1,0.1 0,0 0,0 m -2.8,1.2 c 0,-0.3 -0.1,0 -0.2,0.3 0,0 0.1,-0.1 0.2,-0.3 m -0.2,0.3 c -0.1,0.1 -0.1,0.1 0,0" id="path906"></path><g id="g910" transform="translate(-28.7,-31.095979)"><path class="st2" d="m 82.9,205.9 h -3.5 l -1,2.8 h -0.9 l 3.2,-8.8 h 0.9 l 3.2,8.8 h -0.9 z m -1.7,-5 c 0,0 -0.2,0.7 -0.3,1.1 l -1.2,3.2 h 3 L 81.6,202 c -0.2,-0.4 -0.4,-1.1 -0.4,-1.1 z m 7.1,-0.9 h 0.8 l 4.5,6.3 c 0.3,0.4 0.7,1.2 0.7,1.2 0,0 -0.1,-0.7 -0.1,-1.2 V 200 h 0.9 v 8.8 h -0.8 l -4.5,-6.3 c -0.3,-0.4 -0.7,-1.2 -0.7,-1.2 0,0 0.1,0.7 0.1,1.2 v 6.3 h -0.9 z m 16.7,0 h 4.9 v 0.8 h -4.1 v 3.2 h 3.3 v 0.8 h -3.3 v 3.2 h 4.3 v 0.8 H 105 Z m 9.1,0 h 3 c 1.6,0 2.7,1 2.7,2.6 0,1.6 -1.1,2.7 -2.7,2.7 h -2.2 v 3.4 H 114 V 200 Z m 2.9,4.5 c 1.2,0 1.9,-0.7 1.9,-1.9 0,-1.2 -0.8,-1.9 -1.9,-1.9 h -2.1 v 3.8 z m 10.5,1.4 H 124 l -1,2.8 h -0.9 l 3.2,-8.8 h 0.9 l 3.2,8.8 h -0.9 z m -1.8,-5 c 0,0 -0.2,0.7 -0.3,1.1 l -1.2,3.2 h 3 l -1.1,-3.2 c -0.2,-0.4 -0.3,-1.1 -0.4,-1.1 z m 7.6,-0.9 h 0.9 l 2.3,5.1 c 0.2,0.4 0.4,1.1 0.4,1.1 0,0 0.2,-0.6 0.4,-1.1 l 2.3,-5.1 h 0.9 l 0.7,8.8 h -0.9 l -0.5,-6.1 v -1.2 c 0,0 -0.3,0.8 -0.5,1.2 l -2.1,4.5 h -0.8 l -2.1,-4.5 c -0.2,-0.4 -0.5,-1.2 -0.5,-1.2 v 1.2 l -0.5,6.1 h -0.9 z m 21.3,-0.2 c 2.1,0 3.1,1.1 3.1,1.1 l -0.5,0.6 c 0,0 -1,-1 -2.7,-1 -2.1,0 -3.5,1.6 -3.5,3.7 0,2.1 1.5,3.8 3.5,3.8 1.8,0 2.8,-1.2 2.8,-1.2 l 0.5,0.6 c 0,0 -1.2,1.4 -3.3,1.4 -2.6,0 -4.4,-2 -4.4,-4.6 0.1,-2.4 2,-4.4 4.5,-4.4 z m 11.1,0 c 2.5,0 4.5,2 4.5,4.5 0,2.6 -2,4.6 -4.5,4.6 -2.5,0 -4.5,-2 -4.5,-4.6 0,-2.5 2,-4.5 4.5,-4.5 z m 0,8.3 c 2,0 3.6,-1.6 3.6,-3.8 0,-2.1 -1.6,-3.7 -3.6,-3.7 -2,0 -3.6,1.6 -3.6,3.7 0,2.1 1.6,3.8 3.6,3.8 z m 8.8,-8.1 h 0.9 l 2.3,5.1 c 0.2,0.4 0.4,1.1 0.4,1.1 0,0 0.2,-0.6 0.4,-1.1 l 2.3,-5.1 h 0.9 l 0.7,8.8 h -0.9 l -0.5,-6.1 v -1.2 c 0,0 -0.3,0.8 -0.5,1.2 l -2.1,4.5 h -0.8 l -2.1,-4.5 c -0.2,-0.4 -0.5,-1.2 -0.5,-1.2 v 1.2 l -0.5,6.1 h -0.9 z m 12.2,0 h 3 c 1.6,0 2.7,1 2.7,2.6 0,1.6 -1.1,2.7 -2.7,2.7 h -2.2 v 3.4 h -0.9 V 200 Z m 2.9,4.5 c 1.2,0 1.9,-0.7 1.9,-1.9 0,-1.2 -0.8,-1.9 -1.9,-1.9 h -2.1 v 3.8 z m 10.5,1.4 h -3.5 l -1,2.8 h -0.9 l 3.2,-8.8 h 0.9 l 3.2,8.8 h -0.9 z m -1.8,-5 c 0,0 -0.2,0.7 -0.3,1.1 l -1.2,3.2 h 3 l -1.1,-3.2 c -0.2,-0.4 -0.3,-1.1 -0.4,-1.1 z m 7.1,-0.9 h 0.8 l 4.5,6.3 c 0.3,0.4 0.7,1.2 0.7,1.2 0,0 -0.1,-0.7 -0.1,-1.2 V 200 h 0.9 v 8.8 h -0.8 l -4.5,-6.3 c -0.3,-0.4 -0.7,-1.2 -0.7,-1.2 0,0 0.1,0.7 0.1,1.2 v 6.3 h -0.9 z m 13.3,5 -3,-5 h 1 l 1.9,3.2 c 0.3,0.4 0.5,1 0.5,1 l 0.5,-1 1.9,-3.2 h 1 l -2.9,5 v 3.8 h -0.9 z" id="path908"></path></g></svg> 