<svg version="1.1" id="Layer_1" xmlns="http://www.w3.org/2000/svg" x="0" y="0" viewBox="0 0 590.1 207.7" xml:space="preserve"><style>.st1{display:inline}.st2,.st4{fill:none;stroke-width:.25;stroke-miterlimit:10}.st2{stroke:#b2b2b2}.st4{display:inline;stroke-dasharray:1,1}.st4,.st5,.st6{stroke:#b2b2b2}.st5{fill:none;stroke-width:.25;stroke-miterlimit:10;stroke-dasharray:.993,.993}.st6{stroke-dasharray:1.0017,1.0017}.st6,.st7,.st8{fill:none;stroke-width:.25;stroke-miterlimit:10}.st7{stroke-dasharray:.9926,.9926;stroke:#b2b2b2}.st8{display:inline;stroke:#e71d73}.st9{fill:#9d9d9c}.st10{fill:#424241}.st13{fill:#fff}.st14{fill:#00abcd}</style><path class="st13" d="M124.7 72.9h30.1V39.6c0-9.3-4.4-14-13.4-14H138c-8.9 0-13.4 4.7-13.4 14v33.3zm0 21.3l.1 36.6c0 9.3 4.5 13.9 13.4 13.9h3.9c8.9 0 13.4-4.6 13.4-13.9v-18H176v17.1c0 23.5-11.4 35.5-34 35.5h-4.5c-22.6 0-34-11.9-34-32.7V43.2c0-26.3 11.4-38.2 34-38.2h4.5c22.6 0 34 11.9 34 35.4l-.1 53.7h-51.2zM210.9 136.3c5.8 5.2 12.5 8.1 19.5 8.1 7.8 0 12.3-3.8 12.3-12.8v-93c0-9-4.5-12.8-12.3-12.8-7 0-13.7 2.9-19.5 8.1v102.4zM189.7 6.8h21.2V17c5-5.5 13.6-11.9 25.9-11.9 18.1 0 27 12.5 27 31.1v98.2c0 18.6-8.9 31.1-27 31.1-12.3 0-20.9-6.1-25.9-11.3v50.6h-21.2V6.8zM327.3 137.2V85.5l-19.2 7.6c-7.8 3.2-10.3 7.3-10.3 16.3v23.8c0 7.6 3.6 11.3 10.3 11.3 6.4 0 12.3-2.3 19.2-7.3M276.6 109c0-19.5 6.1-27.3 22.3-33.1l28.4-10.2V39.6c0-9.3-4.5-14.2-13.4-14.2h-3.4c-8.9 0-13.4 4.9-13.4 14.2v22.2h-20.6V40.5c0-23.5 11.4-35.4 34-35.4h4c22.6 0 34 11.9 34 35.4v123.2h-21.2v-9.9c-5.8 5.8-13.7 11.6-25.9 11.6-17 0-24.8-10.2-24.8-27.6V109zM434.1 163.7h-21.2V37.3c0-7.8-3.6-11.3-10-11.3-5.8 0-12 2.3-19.5 7.8v129.9h-21.2V6.8h21.2V17c6.2-6.1 14.2-12 25.9-12 10.9 0 18.1 4.7 22 12.8C438.9 11.1 447.8 5 460 5c16.4 0 24.8 10.5 24.8 27.6v131h-21.2V37.3c0-7.8-3.6-11.3-10-11.3-5.8 0-12 2.3-19.5 7.8v129.9z"/><path class="st14" d="M22 75.2v21.2l54.4 53.3v-29.5L40.8 85.5l35.6-35.4V21.2zM511.7 50.1l35.6 35.4-35.6 34.8v29.4l54.4-53.3V75.2l-54.4-54z"/></svg>