<svg id="Pictograms" xmlns="http://www.w3.org/2000/svg" viewBox="0 0 240 240"><defs><style>.cls-1{fill:#e35500;}.cls-2,.cls-3,.cls-4{fill:#f0ab00;}.cls-2{opacity:0.4;}.cls-3{opacity:0.7;}.cls-5{fill:#fff;}</style></defs><title>281518-pictogram-neg</title><polygon class="cls-1" points="136 43.5 160 43.5 160 143.5 148.25 137 136 143.5 136 43.5"/><rect class="cls-2" x="136" y="93.5" width="24" height="25" transform="translate(296 212) rotate(180)"/><rect class="cls-3" x="136" y="68.5" width="24" height="25" transform="translate(296 162) rotate(180)"/><rect class="cls-4" x="136" y="43.5" width="24" height="25" transform="translate(296 112) rotate(180)"/><path class="cls-5" d="M208,60V50.82l-1-.57C206.22,49.83,188.23,40,163,40a99.31,99.31,0,0,0-43,9.76c-4.28-2-22.29-9.76-43-9.76A99.48,99.48,0,0,0,33,50.24l-1,.57V60H20V200H220V60Zm-4-6.78V166.63c-5.9-2.93-20.06-8.63-41-8.63s-35.1,5.7-41,8.63V53.22a95.76,95.76,0,0,1,82,0ZM77,178a99.51,99.51,0,0,0-41,8.76v-5.55A95.25,95.25,0,0,1,77,172c21.93,0,37.14,7.16,41,9.18v5.51C112,183.8,97.39,178,77,178Zm45-6.85c3.67-2,18.19-9.15,41-9.15s37.32,7.13,41,9.15v5.47c-5.9-2.93-20.06-8.63-41-8.63s-35.1,5.7-41,8.63Zm-4,5.54c-6-2.89-20.61-8.7-41-8.7a99.51,99.51,0,0,0-41,8.76v-5.55A95.25,95.25,0,0,1,77,162c21.93,0,37.14,7.16,41,9.18Zm4,4.46c3.67-2,18.19-9.15,41-9.15s37.32,7.13,41,9.15v5.47c-5.9-2.93-20.06-8.63-41-8.63s-35.1,5.7-41,8.63ZM36,53.23A98.31,98.31,0,0,1,77,44c19.24,0,36.56,7.25,41,9.27V166.7c-6-2.89-20.61-8.7-41-8.7a99.51,99.51,0,0,0-41,8.76V53.23ZM24,196V64h8V193.43l3-1.69c.17-.1,17.49-9.74,42-9.74a97,97,0,0,1,31,5v9Zm88,0v-7.53a55,55,0,0,1,7,3.24l1.06.64,1-.67a47.88,47.88,0,0,1,6.92-3.34V196Zm104,0H132v-9h-.38A96.3,96.3,0,0,1,163,182c26.35,0,41.77,9.59,41.92,9.69l3.08,2V64h8Z"/></svg>