<svg xmlns="http://www.w3.org/2000/svg" viewBox="0 0 248 248"><defs><style>.cls-1{fill:#fff;}.cls-2{fill:#e35500;}.cls-3,.cls-4,.cls-5{fill:#f0ab00;}.cls-4{opacity:0.7;}.cls-5{opacity:0.4;}</style></defs><title>283621-pictogram-neg</title><g id="outlines_--_combound_path" data-name="outlines -- combound path"><path class="cls-1" d="M228.36,32.18H19.64A9.65,9.65,0,0,0,10,41.82V176.76a9.66,9.66,0,0,0,9.64,9.64h82.51L93.69,216h-8v4h76.68v-4h-8l-8.46-29.6h82.51a9.65,9.65,0,0,0,9.64-9.64V41.82A9.65,9.65,0,0,0,228.36,32.18ZM150.15,216H97.85l8.46-29.6h35.38ZM234,176.76a5.65,5.65,0,0,1-5.64,5.64H19.64A5.65,5.65,0,0,1,14,176.76V157.6H234Zm0-23.16H14V41.82a5.65,5.65,0,0,1,5.64-5.64H228.36A5.65,5.65,0,0,1,234,41.82Z"/></g><g id="color_band" data-name="color band"><path class="cls-2" d="M218,74H190V46h28Zm0,72V126H190v20Zm-28-32h28V86H190ZM58,46H30V74H58Zm80,0H70V74h68Zm40,0H150V74h28Zm0,100V126H150v20Zm-40,0V126H110v20Zm-28-32h68V86H110ZM98,146V126H30v20ZM70,114H98V86H70Zm-40,0H58V86H30Z"/></g><g id="_100_band" data-name="100% band"><path class="cls-3" d="M218,74H190V46h28Zm0,72V126H190v20Zm-28-32h28V86H190Z"/></g><g id="_70_band" data-name="70% band"><path class="cls-4" d="M178,74H150V46h28Zm0,72V126H150v20Zm-68-32h68V86H110Z"/></g><g id="_40_band" data-name="40% band"><path class="cls-5" d="M138,74H70V46h68Zm0,72V126H110v20ZM70,114H98V86H70Z"/></g></svg>