<svg xmlns="http://www.w3.org/2000/svg" viewBox="0 0 248 248"><defs><style>.cls-1{fill:#fff;}.cls-2{fill:#e35500;}.cls-3,.cls-4,.cls-5{fill:#f0ab00;}.cls-4{opacity:0.7;}.cls-5{opacity:0.4;}</style></defs><title>285737-pictogram-neg</title><g id="outlines_--_combound_path" data-name="outlines -- combound path"><path class="cls-1" d="M233.18,133a34.76,34.76,0,0,0-17.75-12.63,46.65,46.65,0,0,0-73.58-30.65l-.09.07,0,0,0,0h0a30.66,30.66,0,0,0-37.35-4.45l-1.17.7-.49-1.27A37.66,37.66,0,0,0,30.8,106.25l.28,1.31-1.34.08a23.06,23.06,0,0,0,1.35,46.08H71.72c0,.09-.07.18-.1.28a27.13,27.13,0,0,0-1.07,7.53,26.74,26.74,0,0,0,3,12.4,27.37,27.37,0,0,0,8.65,9.89,27,27,0,0,0,12.53,4.72,28.11,28.11,0,0,0,3,.17H205.07A35,35,0,0,0,233.18,133ZM73.49,149.24l-.06.13c-.06.1-.1.22-.15.32H31.09a19,19,0,0,1,0-38.07,18.37,18.37,0,0,1,2.5.19l3.2.42-1-3.06a33.64,33.64,0,1,1,64.38-19.4l.79,3,2.41-2a26.79,26.79,0,0,1,35.25,1.36l.06.06c-.18.16-.19.15-.38.31a47,47,0,0,0-12,16.79l-.16.39c-.17.4-.34.81-.5,1.22a26.84,26.84,0,0,0-26.22,23.46,27.08,27.08,0,0,0-10.13,1.28,27.44,27.44,0,0,0-15.72,13.44A.41.41,0,0,1,73.49,149.24Zm131.58,35.49H97.73a23.23,23.23,0,0,1-23.18-22.62h0c0-.06,0-.13,0-.19s0-.26,0-.39a23.1,23.1,0,0,1,1.25-7.5A23.7,23.7,0,0,1,78,149.42a23.44,23.44,0,0,1,8.29-8,23,23,0,0,1,14.7-2.83l2.11.3h0l.1-2.18c0-.19,0-.39.06-.58s0-.24,0-.36h0a22.82,22.82,0,0,1,22.76-20.81l.89,0,1.48.06.48-1.4a40.42,40.42,0,0,1,1.72-4.22v0a42.39,42.39,0,0,1,10.29-13.85,44.27,44.27,0,0,1,3.56-2.84,42.63,42.63,0,0,1,22.61-7.89h0c.85,0,1.55-.06,2.2-.06a42.7,42.7,0,0,1,42.35,37.41l.16,1.3v0l1.29.35a31,31,0,0,1-8,60.92Z"/></g><g id="color_band" data-name="color band"><path class="cls-2" d="M167.1,135.74v-51a42.63,42.63,0,0,0-22.61,7.89,44.27,44.27,0,0,0-3.56,2.84,42.43,42.43,0,0,0-10.3,13.88,40.42,40.42,0,0,0-1.72,4.22l-.48,1.4L127,115l-.89,0a22.82,22.82,0,0,0-22.76,20.81c0,.12,0,.24,0,.36s-.05.39-.06.58l-.1,2.18h0l-2.11-.3a23.22,23.22,0,0,0-23,10.86A23.7,23.7,0,0,0,75.78,154a23.1,23.1,0,0,0-1.25,7.5c0,.13,0,.26,0,.39s0,.13,0,.19a23.23,23.23,0,0,0,23.18,22.62H167.1v-49Z"/></g><g id="_100_band" data-name="100% band"><path class="cls-3" d="M167.1,84.78a42.63,42.63,0,0,0-22.61,7.89,44.27,44.27,0,0,0-3.56,2.84,42.39,42.39,0,0,0-10.29,13.85H167.1Z"/></g><g id="_70_band" data-name="70% band"><path class="cls-4" d="M167.1,109.36H130.64v0a40.42,40.42,0,0,0-1.72,4.22l-.48,1.4L127,115l-.89,0a22.82,22.82,0,0,0-22.76,20.81h63.8Z"/></g><g id="_40_band" data-name="40% band"><path class="cls-5" d="M167.1,135.74H103.3c0,.12,0,.24,0,.36s-.05.39-.06.58l-.1,2.18h0l-2.11-.3a23.22,23.22,0,0,0-23,10.86A23.7,23.7,0,0,0,75.78,154a23.1,23.1,0,0,0-1.25,7.5c0,.13,0,.26,0,.39s0,.13,0,.19H167.1Z"/></g></svg>