<svg id="Pictograms" xmlns="http://www.w3.org/2000/svg" viewBox="0 0 240 240"><defs><style>.cls-1{fill:#e35500;}.cls-2,.cls-3,.cls-4{fill:#f0ab00;}.cls-2{opacity:0.4;}.cls-3{opacity:0.7;}.cls-5{fill:#fff;}</style></defs><title>281429-pictogram-neg</title><path class="cls-1" d="M120,28a92,92,0,0,0-92,92v21h2.15a39.44,39.44,0,0,1,6.45-21h-.32a39.87,39.87,0,0,1,67.56,0h32.43a39.93,39.93,0,0,1,67.36,0h-.32a39.14,39.14,0,0,1,6.56,21H212V120A92,92,0,0,0,120,28Z"/><path class="cls-2" d="M70.06,101.31A39.7,39.7,0,0,1,103.84,120h32.43a40,40,0,0,1,49.44-15.26,67.46,67.46,0,0,0-131.37-.22A39.85,39.85,0,0,1,70.06,101.31Z"/><path class="cls-3" d="M103.84,120h32.43a39.89,39.89,0,0,1,23.13-17.07,42.94,42.94,0,0,0-78.71-.18A39.76,39.76,0,0,1,103.84,120Z"/><path class="cls-4" d="M138.17,117.26a18.38,18.38,0,0,0-36.33-.15q1.06,1.4,2,2.89h0a40.17,40.17,0,0,1,5.6,14.77,18.54,18.54,0,0,0,21.14,0,39.89,39.89,0,0,1,5.65-14.75l0-.07h.09Q137.17,118.59,138.17,117.26Z"/><path class="cls-5" d="M88,208.54l-40-8.12v-25.5c-11.94-6.13-19.88-19.38-19.88-33.4a41.94,41.94,0,1,1,83.88,0V160h-8v14.42C104,184,96.4,184,93.9,184H88ZM52,197.15l32,6.5V180h9.9c4.62,0,6.1-1.36,6.1-5.58V156h8V141.52a37.94,37.94,0,1,0-75.88,0c0,12.94,7.52,25.13,18.72,30.34l1.16.54Zm100,11.19V184h-4.49c-10,0-11.51-6.05-11.51-9.66V160h-8V141.57a42,42,0,1,1,83.9,0c0,14-7.95,27.17-19.9,33.28v25.4ZM132,156h8v18.34c0,2.64.85,5.66,7.51,5.66H156v23.45L188,197V172.32l1.16-.54c11.21-5.19,18.74-17.33,18.74-30.21a38,38,0,1,0-75.9,0Zm-30.92-11.33-3.46-1.89,3.46-1.89-1.92-3.51-9.89,5.4,9.89,5.4ZM151,142.78l-9.9-5.4-1.92,3.51,3.46,1.89-3.46,1.89,1.92,3.51Z"/></svg>