<svg id="Pictograms" xmlns="http://www.w3.org/2000/svg" viewBox="0 0 240 240"><defs><style>.cls-1{fill:#fff;}.cls-2{fill:#e35500;}.cls-3,.cls-4,.cls-5{fill:#f0ab00;}.cls-4{opacity:0.7;}.cls-5{opacity:0.4;}</style></defs><title>281326-pictogram-neg</title><path class="cls-1" d="M142,190.55l-21.39,5.11L93,157V28l28.36,40.62,3.28-2.29L89,15.31V45.59L56,30.38V46.6L28,39.42V179.6l91.52,20.45L143,194.45ZM60,36.62,89,50V158.31l24.52,34.27L60,168.21Zm-28,8,24,6.15V170.79l47.34,21.55L32,176.4Z"/><polygon class="cls-2" points="212 180.5 212 40.5 120 60 120 200 212 180.5"/><polygon class="cls-3" points="212 75.5 212 40.5 120 60 120 95 212 75.5"/><polygon class="cls-4" points="212 110.5 212 75.5 120 95 120 130 212 110.5"/><polygon class="cls-5" points="212 145.5 212 110.5 120 130 120 165 212 145.5"/></svg>