<svg xmlns="http://www.w3.org/2000/svg" viewBox="0 0 248 248"><defs><style>.cls-1{fill:#fff;}.cls-2{fill:#e35500;}.cls-3,.cls-4,.cls-5{fill:#f0ab00;}.cls-4{opacity:0.7;}.cls-5{opacity:0.4;}</style></defs><title>283567-pictogram-neg</title><g id="outlines_--_combound_path" data-name="outlines -- combound path"><path class="cls-1" d="M171.3,127.18c0,26.25-37.76,45.31-37.76,45.31h0v-4.6h0c5.62-3.32,33.76-21,33.76-40.71,0-11.6-6.87-19.69-16.7-19.69-12.68,0-17.06,12-17.06,12h0v-8.1h0c2.43-3.31,7.5-7.93,17.06-7.93C162.6,103.49,171.3,113.45,171.3,127.18Zm9.52,61.15H53.73c-15.62,0-30.39-16.33-30.39-33.61a33.64,33.64,0,0,1,33.54-33.61,33.6,33.6,0,0,1,30.64-27c2.82-6.76,7.09-11.86,12.57-17.34a56.25,56.25,0,0,1,79.46,0c8.44,8.44,13.31,17.57,15.27,28.65a42.64,42.64,0,0,1-14,82.92ZM56.94,125.12a29.64,29.64,0,0,0-29.61,29.61c0,15.22,12.82,29.61,26.39,29.61h127.1a38.64,38.64,0,0,0,11.62-75.49l-1.18-.37-.19-1.23c-1.68-10.75-6.24-19.54-14.35-27.65a52.25,52.25,0,0,0-73.8,0C97.47,85,93.32,90,90.77,96.75L90.29,98,89,98a29.59,29.59,0,0,0-28.41,25.4l-.26,1.81-1.83-.1Q57.69,125.12,56.94,125.12Z"/></g><g id="color_band" data-name="color band"><path class="cls-2" d="M133.54,111.41c-2.43-3.31-7.58-7.92-17.13-7.92-12,0-20.71,10-20.71,23.69,0,26.12,37.73,45.25,37.84,45.3Z"/></g><g id="_100_band" data-name="100% band"><path class="cls-3" d="M133.54,155.23H109.83a106.26,106.26,0,0,0,23.71,17.25Z"/></g><g id="_70_band" data-name="70% band"><path class="cls-4" d="M133.54,138H97.85c2.53,6.47,7,12.3,12,17.25h23.69Z"/></g><g id="_40_band" data-name="40% band"><path class="cls-5" d="M133.54,120.74H96.39A29.1,29.1,0,0,0,97.85,138h35.69Z"/></g></svg>