<svg xmlns="http://www.w3.org/2000/svg" viewBox="0 0 248 248"><defs><style>.cls-1{fill:#fff;}.cls-2{fill:#e35500;}.cls-3,.cls-4,.cls-5{fill:#f0ab00;}.cls-4{opacity:0.7;}.cls-5{opacity:0.4;}</style></defs><title>282030-picrogram-neg</title><g id="outlines_--_combound_path" data-name="outlines -- combound path"><path class="cls-1" d="M119.8,198.67a79,79,0,1,1,79-79A79.07,79.07,0,0,1,119.8,198.67Zm0-154a75,75,0,1,0,75,75A75.06,75.06,0,0,0,119.8,44.72Z"/></g><g id="color_band" data-name="color band"><path class="cls-2" d="M105.6,160.73h0a7.59,7.59,0,0,1-5.88-3.13c-.34-.43-1.82-2.61-1.82-8V83.72a11.24,11.24,0,0,1,1.68-5.53l.08-.12a7.06,7.06,0,0,1,5.75-3.24c2,0,4.19.94,6.65,2.86l44.35,33.81.09.1c4.28,4.28,4.28,8.1,0,12.38l-.2.18L112,157.91C109.78,159.79,107.65,160.73,105.6,160.73Z"/></g><g id="_100_band" data-name="100% band"><path class="cls-3" d="M99.71,157.6a7.59,7.59,0,0,0,5.88,3.13h0c2.05,0,4.18-.94,6.43-2.82l1.35-1V78.71l-1.33-1c-2.46-1.92-4.63-2.86-6.65-2.86a7.06,7.06,0,0,0-5.75,3.24l-.08.12a11.42,11.42,0,0,0-1.66,5.3v67C98,155.22,99.39,157.19,99.71,157.6Z"/></g><g id="_70_band" data-name="70% band"><polygon class="cls-4" points="128.84 145.09 128.84 90.51 113.37 78.72 113.37 156.88 128.84 145.09"/></g><g id="_40_band" data-name="40% band"><polygon class="cls-5" points="144.31 133.3 144.31 102.3 128.84 90.51 128.84 145.09 144.31 133.3"/></g></svg>