<svg xmlns="http://www.w3.org/2000/svg" width="123" height="25" viewBox="0 0 123 25" xml:space="preserve"><path fill-rule="evenodd" clip-rule="evenodd" fill="#FFF" d="M16.41 0c-1.19 0-2.37.26-3.2.6-.83-.34-2-.6-3.2-.6C4.75 0 0 4.98 0 11.8 0 19.24 6.08 25 13.21 25c7.13 0 13.21-5.76 13.21-13.2C26.42 4.98 21.67 0 16.41 0zm-3.2 4.05c1.01.6 2.35 2.35 2.35 4.32 0 1.45-.95 2.58-2.35 2.58-1.4 0-2.35-1.14-2.35-2.58 0-1.97 1.34-3.71 2.35-4.32zm0 17.7c-5.45 0-9.96-4.39-9.96-10.01 0-5.14 3.71-8.64 6.62-8.51C8.49 4.6 7.65 6.6 7.65 8.54c0 3.33 2.65 5.67 5.56 5.67 2.92 0 5.56-2.34 5.56-5.67 0-1.94-.84-3.94-2.22-5.32 2.91-.13 6.62 3.38 6.62 8.51a9.955 9.955 0 0 1-9.96 10.02zM56.68 5.7v2.72h-4.15v10.21H49.6V8.42h-4.15V5.7h11.23zm37.09 0h-7.39v2.74h7.2c1.06 0 1.47.48 1.47 1.72v.46h-5.96c-2.27 0-3.4 1.13-3.4 3.7v.61c0 2.64 1.17 3.7 3.52 3.7h8.75v-8.49c-.01-3.27-1.09-4.44-4.19-4.44zm-4.26 10.16c-.44 0-.94-.23-.94-1.34s.49-1.3.94-1.3h5.53v2.64h-5.53zM118.15 5.7h-7.39v2.74h7.2c1.06 0 1.47.48 1.47 1.72v.46h-5.96c-2.27 0-3.4 1.13-3.4 3.7v.61c0 2.64 1.17 3.7 3.52 3.7h8.75v-8.49c-.01-3.27-1.09-4.44-4.19-4.44zm-4.27 10.16c-.44 0-.94-.23-.94-1.34s.49-1.3.94-1.3h5.53v2.64h-5.53zM68.84 5.7v2.72h-4.15v10.21h-2.94V8.42H57.6V5.7h11.24zm40.93 0v2.72h-4.15v10.21h-2.94V8.42h-4.15V5.7h11.24zm-25.22 8.39v-3.87c0-3.39-1.31-4.53-4.27-4.53h-7.86v12.92h8c3.13.01 4.13-1.56 4.13-4.52zm-3 .06c0 1.24-.42 1.72-1.47 1.72h-4.73V8.45h4.73c1.06 0 1.47.48 1.47 1.72v3.98zm-40.02 1.53c.07-.04.08-.18.07-.32-.01-.17-.04-1.03-.04-1.61V5.69h2.89v9.66c0 2.88-1.42 3.41-2.62 3.41-1.29 0-1.96-.6-2.52-1.47-.77-1.21-4.41-8.41-4.47-8.52-.06-.11-.14-.18-.22-.14-.07.04-.08.18-.07.32.01.17.04 1.03.04 1.61v8.06H31.7V8.96c0-2.88 1.42-3.41 2.62-3.41 1.29 0 1.96.6 2.52 1.47.48.75 4.4 8.4 4.46 8.52.07.11.15.19.23.14z"/></svg>
